<svg xmlns="http://www.w3.org/2000/svg" viewBox="0 0 498.05 136">
  <defs>
    <style>
      .cls-1{fill:none;clip-rule:evenodd;}
      .cls-2,.cls-3{fill:#ffffff;}
      .cls-77,.cls-78{fill:#ffffff;fill-rule:evenodd;}
    </style>
    <clipPath id="clip-path">
      <path class="cls-1" d="M40.18,27.55v82.51l-3.93-4.18s-1.33-21.39-6.75-31.4S18.77,59.07,18.57,46.67,29.71,30.42,31.8,29.48s8.38-1.93,8.38-1.93Zm-8,19c-.75,0-1.35,1.36-1.35,3s.6,3,1.35,3,1.35-1.36,1.35-3S32.91,46.51,32.16,46.51Z"/>
    </clipPath>
  </defs>
  <title>buzzmonitor</title>
  <path class="cls-2" d="M19.12,44.94S17.23,32.3,17.79,28.79c1.17-7.23,9.19,4.75,10,6.86C29.53,40.65,19.12,44.94,19.12,44.94Z"/>
  <path class="cls-3" d="M60.48,45.25s1.89-12.64,1.32-16.16c-1.16-7.22-9.18,4.75-9.94,6.87C50.07,41,60.48,45.25,60.48,45.25Z"/>
  <rect x="-50" y="0" width="200" height="136" fill="#ffffff" clip-path="url(#clip-path)"/>
  <path class="cls-77" d="M40.18,27.55v82.51l3.93-4.18s1.33-21.39,6.75-31.4S61.59,59.07,61.8,46.67,50.65,30.42,48.57,29.48s-8.39-1.93-8.39-1.93Zm8,19c.75,0,1.36,1.36,1.36,3s-.61,3-1.36,3-1.35-1.36-1.35-3S47.46,46.51,48.2,46.51Z"/>
  <path class="cls-78" d="M80,84.25V54.6h10.9a20.74,20.74,0,0,1,5.23.57,10.17,10.17,0,0,1,3.52,1.61,6.16,6.16,0,0,1,2,2.54,8.45,8.45,0,0,1,.62,3.33,6.64,6.64,0,0,1-.29,1.93,5.32,5.32,0,0,1-.89,1.74,6.8,6.8,0,0,1-1.57,1.49A10.19,10.19,0,0,1,97.2,69a8.17,8.17,0,0,1,4.33,2.3,6,6,0,0,1,1.4,4.08,8.44,8.44,0,0,1-.73,3.52,8.14,8.14,0,0,1-2.14,2.83,10.31,10.31,0,0,1-3.49,1.88,15.07,15.07,0,0,1-4.74.68Zm6.87-12.57v7.37H91.7a6.16,6.16,0,0,0,2.24-.35,3.53,3.53,0,0,0,1.34-.89A3,3,0,0,0,96,76.57a5.54,5.54,0,0,0,.18-1.4,4.72,4.72,0,0,0-.21-1.46,2.4,2.4,0,0,0-.73-1.09,3.58,3.58,0,0,0-1.38-.69,7.72,7.72,0,0,0-2.16-.25Zm0-4.59h3.58a11.67,11.67,0,0,0,2.06-.17,4,4,0,0,0,1.56-.57,2.62,2.62,0,0,0,1-1.11,4.11,4.11,0,0,0,.34-1.79,5,5,0,0,0-.27-1.77,2.58,2.58,0,0,0-.81-1.12A3.35,3.35,0,0,0,92.9,60a9.79,9.79,0,0,0-2-.18h-4v7.32ZM127.7,78.8a6.3,6.3,0,0,0,2.48-.46A4.92,4.92,0,0,0,132,77a5.81,5.81,0,0,0,1.16-2.09,9.22,9.22,0,0,0,.39-2.79V54.6h6.87V72.16a13.73,13.73,0,0,1-.88,5A11.22,11.22,0,0,1,137,81.1a11.45,11.45,0,0,1-4,2.56,15.84,15.84,0,0,1-10.64,0,11.41,11.41,0,0,1-4-2.56,11.06,11.06,0,0,1-2.52-3.93,13.73,13.73,0,0,1-.88-5V54.6h6.88V72.13a8.91,8.91,0,0,0,.4,2.79,5.9,5.9,0,0,0,1.14,2.1,5,5,0,0,0,1.84,1.32,6.25,6.25,0,0,0,2.47.46Zm47.59-24.2v2.48a3.11,3.11,0,0,1-.17,1,3.92,3.92,0,0,1-.48,1L160.73,79h14.11v5.29H152V81.61a2.72,2.72,0,0,1,.16-.93,3.29,3.29,0,0,1,.45-.85l14-19.94H153.12V54.6Zm33.52,0v2.48a3.38,3.38,0,0,1-.17,1,4.31,4.31,0,0,1-.48,1L194.25,79h14.11v5.29H185.5V81.61a3,3,0,0,1,.16-.93,3.29,3.29,0,0,1,.45-.85l13.95-19.94H186.64V54.6Z"/>
  <path class="cls-78" d="M233.26,73.7a7.12,7.12,0,0,1,.5,1c.15.37.28.73.42,1.1.14-.38.28-.75.43-1.1s.32-.7.51-1.06l9.95-18.13a1.15,1.15,0,0,1,.55-.58,2.53,2.53,0,0,1,.82-.1h2.93v29.4h-3.48V62.68c0-.29,0-.59,0-.92s0-.66.06-1L235.9,79.12a1.58,1.58,0,0,1-1.43.93h-.58a1.58,1.58,0,0,1-1.43-.93L222.17,60.69q.06.54.09,1.05c0,.34,0,.65,0,.94V84.27H218.8V54.87h2.94a2.57,2.57,0,0,1,.82.1,1.19,1.19,0,0,1,.55.58L233.26,73.7Zm59.33-4.11a17,17,0,0,1-1,6.07,13.82,13.82,0,0,1-3,4.75A13.19,13.19,0,0,1,284,83.5a16.43,16.43,0,0,1-11.82,0,13.24,13.24,0,0,1-4.57-3.09,13.82,13.82,0,0,1-2.95-4.75,18.07,18.07,0,0,1,0-12.14,14,14,0,0,1,2.95-4.76,13.29,13.29,0,0,1,4.57-3.11,16.29,16.29,0,0,1,11.82,0,13.24,13.24,0,0,1,4.58,3.11,14,14,0,0,1,3,4.76,17,17,0,0,1,1,6.07Zm-4.08,0a15.09,15.09,0,0,0-.74-4.87,10.23,10.23,0,0,0-2.09-3.64,9,9,0,0,0-3.28-2.29,11,11,0,0,0-4.31-.8,10.92,10.92,0,0,0-4.28.8,9,9,0,0,0-3.29,2.29,10.1,10.1,0,0,0-2.1,3.64,16.36,16.36,0,0,0,0,9.73,10.14,10.14,0,0,0,2.1,3.63,9,9,0,0,0,3.29,2.28,11.1,11.1,0,0,0,4.28.79,11.22,11.22,0,0,0,4.31-.79,8.94,8.94,0,0,0,3.28-2.28,10.27,10.27,0,0,0,2.09-3.63,15,15,0,0,0,.74-4.86Zm20.34-14.72a1.79,1.79,0,0,1,.79.13,2,2,0,0,1,.58.55l17,22.14c0-.36-.07-.71-.09-1s0-.66,0-1V54.87h3.49v29.4h-2a1.88,1.88,0,0,1-.79-.16,2,2,0,0,1-.62-.56l-17-22.12c0,.34.05.68.06,1s0,.62,0,.9V84.27H306.8V54.87Zm42.43,29.4h-4V54.87h4v29.4Zm36.66-29.44v3.36h-9.49V84.25h-4V58.19h-9.53V54.83Zm38.24,14.76a17,17,0,0,1-1.05,6.07,14,14,0,0,1-2.95,4.75,13.28,13.28,0,0,1-4.58,3.09,16.43,16.43,0,0,1-11.82,0,13.24,13.24,0,0,1-4.57-3.09,13.84,13.84,0,0,1-3-4.75,18.23,18.23,0,0,1,0-12.14,14,14,0,0,1,3-4.76,13.29,13.29,0,0,1,4.57-3.11,16.29,16.29,0,0,1,11.82,0,13.33,13.33,0,0,1,4.58,3.11,14.11,14.11,0,0,1,2.95,4.76,17,17,0,0,1,1.05,6.07Zm-4.08,0a15.09,15.09,0,0,0-.74-4.87,10.23,10.23,0,0,0-2.09-3.64A9,9,0,0,0,416,58.79a11,11,0,0,0-4.31-.8,10.92,10.92,0,0,0-4.28.8,9,9,0,0,0-3.29,2.29A10.26,10.26,0,0,0,402,64.72a16.58,16.58,0,0,0,0,9.73,10.31,10.31,0,0,0,2.11,3.63,9,9,0,0,0,3.29,2.28,11.1,11.1,0,0,0,4.28.79,11.22,11.22,0,0,0,4.31-.79,9,9,0,0,0,3.28-2.28,10.27,10.27,0,0,0,2.09-3.63,15,15,0,0,0,.74-4.86ZM444.75,72V84.29h-4V54.87h8.31a17.92,17.92,0,0,1,4.81.57,9.08,9.08,0,0,1,3.36,1.62,6.54,6.54,0,0,1,2,2.58,8.52,8.52,0,0,1,.64,3.38,8.39,8.39,0,0,1-.49,2.91A7.74,7.74,0,0,1,458,68.37a8.86,8.86,0,0,1-2.28,1.84,11.36,11.36,0,0,1-3.05,1.14,4.3,4.3,0,0,1,1.31,1.25l8.57,11.69H459a1.73,1.73,0,0,1-1.6-.84l-7.63-10.52a2.07,2.07,0,0,0-.76-.7,2.62,2.62,0,0,0-1.23-.22Zm0-2.91h4.16a10.17,10.17,0,0,0,3.07-.42,6.08,6.08,0,0,0,2.21-1.19,4.83,4.83,0,0,0,1.34-1.83,6,6,0,0,0,.45-2.35,4.66,4.66,0,0,0-1.72-4A8.39,8.39,0,0,0,449.1,58h-4.35Z"/>
</svg>
