<svg width="341" height="150" viewBox="0 0 341 150" fill="none" xmlns="http://www.w3.org/2000/svg">
<path d="M286.495 30.9854C293.464 30.9854 296.949 30.9857 299.853 31.5264C312.858 33.9479 323.032 44.1226 325.454 57.1279C325.995 60.0316 325.995 63.5165 325.995 70.4854C325.995 74.7063 325.994 77.6494 325.874 79.959C325.887 80.4102 325.866 80.8702 325.81 81.3369L321.236 118.819C320.255 126.86 309.982 129.614 305.111 123.141L295.151 109.901C292.97 109.985 290.234 109.985 286.495 109.985H216.272C212.771 109.985 211.02 109.986 209.824 109.26C208.776 108.624 207.998 107.624 207.639 106.452C207.228 105.115 207.658 103.417 208.518 100.022L224.467 37.0225C225.013 34.8637 225.286 33.7839 225.891 32.9805C226.424 32.2716 227.136 31.7169 227.954 31.374C228.881 30.9855 229.995 30.9854 232.222 30.9854H286.495ZM210.721 24C214.223 24 215.974 23.9996 217.17 24.7256C218.218 25.3618 218.996 26.3611 219.355 27.5332C219.766 28.8706 219.336 30.5681 218.477 33.9629L202.527 96.9629C201.981 99.1218 201.707 100.201 201.103 101.005C200.569 101.714 199.857 102.268 199.039 102.611C198.112 103 196.998 103 194.771 103H53.499C46.5301 103 43.0453 103 40.1416 102.459C27.136 100.038 16.9607 89.863 14.5391 76.8574C13.9984 73.9538 13.999 70.4689 13.999 63.5C13.999 56.5311 13.9985 53.0462 14.5391 50.1426C16.9605 37.1369 27.1359 26.9615 40.1416 24.54C43.0452 23.9995 46.5302 24 53.499 24H210.721ZM285.343 51.9873C283.111 51.9874 281.065 52.4625 279.205 53.4131C277.415 54.3487 276.025 55.584 275.036 57.1201C275.006 57.1661 274.956 57.1942 274.901 57.1943C274.813 57.1943 274.741 57.1234 274.741 57.0352V54.9785C274.741 53.8741 273.846 52.9785 272.741 52.9785H271.285C270.181 52.9785 269.285 53.8741 269.285 54.9785V94.751C269.285 95.8555 270.181 96.751 271.285 96.751H272.989C274.094 96.7509 274.989 95.8554 274.989 94.751V83.3584L274.751 79.3057C274.746 79.2173 274.816 79.1426 274.904 79.1426C274.957 79.1426 275.007 79.1704 275.035 79.2148C276.024 80.752 277.414 81.9887 279.205 82.9248C281.065 83.8754 283.111 84.3505 285.343 84.3506C289.352 84.3506 292.741 82.7799 295.511 79.6387C298.363 76.4974 299.789 72.6742 299.789 68.1689C299.789 63.705 298.363 59.8819 295.511 56.6992C292.741 53.5579 289.352 51.9873 285.343 51.9873ZM88.6631 53.6143C85.15 53.6143 82.2567 54.4618 79.9834 56.1563C77.7514 57.8096 76.6348 60.0217 76.6348 62.791C76.6349 67.0069 79.5905 69.8587 85.501 71.3467L90.709 72.6484C93.685 73.5578 95.1729 74.9841 95.1729 76.9268C95.1728 78.0014 94.5525 78.9315 93.3125 79.7168C92.1139 80.502 90.6055 80.8945 88.7871 80.8945C87.0924 80.8945 85.5219 80.3983 84.0752 79.4063C83.1735 78.7432 82.4077 77.9189 81.7783 76.9326C81.1778 75.9915 80.0102 75.4875 78.9834 75.9258L77.5352 76.5439C76.5475 76.9655 76.0548 78.1024 76.5713 79.0439C77.5683 80.8613 78.9532 82.388 80.7266 83.623C83.0412 85.1937 85.7284 85.9785 88.7871 85.9785C92.3004 85.9785 95.2147 85.0696 97.5293 83.251C99.8439 81.4323 101.001 79.2 101.001 76.5547C101.001 71.9667 97.9838 68.9284 91.9492 67.4404L87.3613 66.2627C84.0961 65.5187 82.463 64.2788 82.4629 62.543C82.4629 61.4683 83.0419 60.5585 84.1992 59.8145C85.3977 59.0707 86.7408 58.6983 88.2285 58.6982C89.8405 58.6982 91.288 59.0705 92.5693 59.8145C93.2711 60.1873 93.868 60.642 94.3604 61.1777C95.0913 61.9732 96.214 62.4616 97.2119 62.0479L98.6748 61.4414C99.6882 61.021 100.191 59.8462 99.5879 58.9297C98.6989 57.5792 97.4751 56.4485 95.917 55.5371C93.7677 54.2558 91.3497 53.6143 88.6631 53.6143ZM140.546 53.6143C136.165 53.6144 132.569 55.1649 129.759 58.2646C126.948 61.3233 125.542 65.1675 125.542 69.7969C125.542 74.4675 126.99 78.332 129.883 81.3906C132.776 84.4491 136.454 85.9784 140.918 85.9785C143.977 85.9785 146.705 85.2553 149.103 83.8086C150.951 82.7122 152.49 81.2949 153.721 79.5576C154.375 78.6338 153.962 77.3832 152.944 76.8867L151.41 76.1377C150.461 75.675 149.331 76.0435 148.696 76.8867C146.745 79.4762 144.235 80.7705 141.166 80.7705C138.521 80.7704 136.248 79.8614 134.347 78.043C132.902 76.6608 131.981 74.9441 131.587 72.8936C131.374 71.7876 132.3 70.8506 133.427 70.8506H154.617C154.971 70.8506 155.268 70.5824 155.303 70.2305C155.303 64.9813 153.959 60.9099 151.272 58.0166C148.627 55.0819 145.051 53.6143 140.546 53.6143ZM111.011 45.3066C109.906 45.3068 109.011 46.2022 109.011 47.3066V54.1064C109.011 54.3826 108.787 54.6064 108.511 54.6064H105.679C104.574 54.6066 103.679 55.5021 103.679 56.6064V57.8145C103.679 58.9189 104.574 59.8143 105.679 59.8145H108.511C108.787 59.8145 109.011 60.0384 109.011 60.3145V76.8027C109.052 79.5307 109.879 81.6591 111.491 83.1885C113.145 84.7178 115.211 85.4824 117.691 85.4824C118.877 85.4824 119.975 85.3863 120.983 85.1943C122.063 84.9886 122.603 83.8401 122.236 82.8037L121.539 80.832C121.302 80.1641 120.545 79.8401 119.861 80.0264C119.448 80.109 119.014 80.1504 118.56 80.1504C117.568 80.1504 116.679 79.7992 115.894 79.0967C115.108 78.3527 114.715 76.9677 114.715 74.9424V60.3145C114.715 60.0385 114.939 59.8146 115.215 59.8145H120.155C121.26 59.8144 122.155 58.919 122.155 57.8145V56.6064C122.155 55.5021 121.26 54.6065 120.155 54.6064H115.215C114.939 54.6063 114.715 54.3825 114.715 54.1064V47.3066C114.715 46.2021 113.819 45.3066 112.715 45.3066H111.011ZM38.8213 40.5947C37.7167 40.5947 36.8213 41.4902 36.8213 42.5947V82.9863C36.8213 84.0909 37.7167 84.9863 38.8213 84.9863H40.5254C41.6299 84.9863 42.5254 84.0909 42.5254 82.9863V42.5947C42.5254 41.4902 41.6299 40.5948 40.5254 40.5947H38.8213ZM51.9717 54.6064C50.8672 54.6064 49.9718 55.502 49.9717 56.6064V82.9863C49.9717 84.0909 50.8671 84.9863 51.9717 84.9863H53.6758C54.7803 84.9862 55.6758 84.0908 55.6758 82.9863V56.6064C55.6756 55.5021 54.7802 54.6066 53.6758 54.6064H51.9717ZM66.0908 55.5947C64.9863 55.5947 64.0908 56.4902 64.0908 57.5947V82.9863C64.0908 84.0909 64.9863 84.9863 66.0908 84.9863H67.7949C68.8994 84.9862 69.7949 84.0908 69.7949 82.9863V57.5947C69.7949 56.4903 68.8994 55.5949 67.7949 55.5947H66.0908ZM175.833 53.6143C173.89 53.6143 172.009 54.1105 170.19 55.1025C168.444 56.0772 167.137 57.2917 166.269 58.7451C166.24 58.7931 166.188 58.8223 166.132 58.8223C166.045 58.8221 165.975 58.752 165.975 58.665V56.6064C165.974 55.502 165.079 54.6065 163.975 54.6064H162.519C161.414 54.6064 160.519 55.502 160.519 56.6064V82.9863C160.519 84.0909 161.414 84.9863 162.519 84.9863H164.223C165.327 84.9863 166.223 84.0909 166.223 82.9863V68.1846C166.223 65.622 166.987 63.4309 168.517 61.6123C170.046 59.7525 171.947 58.8223 174.221 58.8223C179.098 58.8223 181.599 61.3028 181.723 66.2627V82.9863C181.723 84.0909 182.618 84.9863 183.723 84.9863H185.427C186.531 84.9862 187.427 84.0908 187.427 82.9863V65.8906C187.427 61.9641 186.414 58.9468 184.389 56.8389C182.405 54.6896 179.553 53.6143 175.833 53.6143ZM237.682 52.9785C236.577 52.9785 235.682 53.8741 235.682 54.9785V72.0752C235.682 76.0014 236.674 79.0392 238.657 81.1885C240.683 83.2964 243.556 84.3505 247.275 84.3506C249.218 84.3506 251.078 83.8552 252.855 82.8633C254.642 81.8886 255.971 80.6741 256.84 79.2207C256.869 79.1727 256.921 79.1426 256.977 79.1426C257.063 79.1428 257.134 79.2139 257.134 79.3008V81.3584C257.134 82.463 258.029 83.3584 259.134 83.3584H260.59C261.694 83.3583 262.59 82.4629 262.59 81.3584V54.9785C262.59 53.8742 261.694 52.9786 260.59 52.9785H258.886C257.781 52.9785 256.886 53.8741 256.886 54.9785V69.7813C256.886 72.3437 256.121 74.5551 254.592 76.415C253.062 78.2337 251.161 79.1426 248.888 79.1426C244.01 79.1426 241.51 76.6629 241.386 71.7031V54.9785C241.386 53.8741 240.49 52.9786 239.386 52.9785H237.682ZM284.413 57.1943C287.141 57.1943 289.435 58.2283 291.295 60.2949C293.155 62.3616 294.085 64.9863 294.085 68.1689C294.085 71.3929 293.155 74.0177 291.295 76.043C289.435 78.1095 287.141 79.1426 284.413 79.1426C281.644 79.1426 279.329 78.1298 277.469 76.1045C275.65 74.0379 274.741 71.3927 274.741 68.1689C274.741 64.9864 275.65 62.3615 277.469 60.2949C279.329 58.2283 281.644 57.1944 284.413 57.1943ZM140.422 58.8223C143.026 58.8223 145.093 59.5254 146.622 60.9307C148.057 62.1769 148.906 63.7342 149.168 65.6016C149.208 65.8901 148.977 66.1387 148.686 66.1387H132.428C132.108 66.1387 131.87 65.8424 131.954 65.5342C132.491 63.5837 133.454 62.0075 134.843 60.8066C136.413 59.4842 138.273 58.8224 140.422 58.8223Z" fill="white"/>
</svg>
